<svg xmlns="http://www.w3.org/2000/svg"
     width="260" height="300"
     viewBox="-4 -4 208 252">
  <title>Black Cat Studio</title>
  <g transform="translate(22.5,22.5) scale(0.775)" fill="#0d0d18" stroke="#b8b8cc" stroke-width="6" stroke-linejoin="round" paint-order="stroke fill">
    <path d="M 22.7,25.9 L 24.6,36.8 L 14.1,43.5 L 11.9,49.7 L 8.1,55.7
             L 10.3,61.9 L 12.7,63.5 L 21.9,64.1 L 24.9,66.8 L 24.9,72.7
             L 23.0,83.2 L 23.2,90.0 L 28.4,102.4 L 35.9,113.0 L 37.6,117.6
             L 39.7,134.9 L 39.7,150.3 L 38.1,158.1 L 31.9,162.4 L 31.4,165.7
             L 33.0,168.4 L 40.0,169.7 L 45.4,167.0 L 55.4,132.7 L 57.6,136.2
             L 60.0,145.9 L 67.3,157.6 L 67.3,158.6 L 63.5,160.8 L 60.0,161.1
             L 57.3,163.2 L 56.5,167.3 L 58.9,169.5 L 103.8,170.3 L 107.6,169.5
             L 111.9,166.5 L 124.1,169.5 L 160.0,169.7 L 170.8,170.8 L 185.9,174.1
             L 191.4,174.1 L 191.1,171.6 L 188.1,169.5 L 174.9,164.9 L 154.6,162.2
             L 127.6,160.8 L 119.2,157.8 L 116.2,154.3 L 115.4,151.1 L 117.0,141.1
             L 117.0,130.8 L 115.7,123.0 L 110.5,106.5 L 103.2,93.0 L 95.1,84.1
             L 88.9,79.7 L 65.7,71.1 L 58.9,62.7 L 50.3,56.5 L 41.1,40.8 L 23.5,25.4 Z"/>
  </g>
  <!-- Golden double ring -->
  <circle cx="100" cy="100" r="96" fill="none" stroke="#c8a84a" stroke-width="1.4"/>
  <circle cx="100" cy="100" r="90" fill="none" stroke="#c8a84a" stroke-width="0.5" stroke-opacity="0.6"/>
  <!-- Brand name -->
  <text x="100" y="218" text-anchor="middle"
        font-family="Georgia,serif" font-size="9"
        letter-spacing="4" fill="#c8a84a">BLACK CAT STUDIO</text>
</svg>
